<svg xmlns="http://www.w3.org/2000/svg" viewBox="0 0 48 48">
  <defs>
    <!-- Main gradient - blue tones -->
    <linearGradient id="hex-gradient" x1="0%" y1="0%" x2="100%" y2="100%">
      <stop offset="0%" stop-color="#3478f6"/>
      <stop offset="50%" stop-color="#1e5aeb"/>
      <stop offset="100%" stop-color="#1646d8"/>
    </linearGradient>
    <!-- Wave gradient - lighter blue/teal -->
    <linearGradient id="wave-gradient-2" x1="0%" y1="100%" x2="100%" y2="0%">
      <stop offset="0%" stop-color="#7db4f8"/>
      <stop offset="100%" stop-color="#5b9cf7"/>
    </linearGradient>
    <!-- Clip path for rounded hexagon shape -->
    <clipPath id="hex-clip">
      <path d="M24 4C25 4 26 4.3 26.8 4.8L39.2 12.2C40.8 13.2 41.8 14.8 41.8 16.6V31.4C41.8 33.2 40.8 34.8 39.2 35.8L26.8 43.2C25.2 44.2 23.2 44.2 21.6 43.2L9.2 35.8C7.6 34.8 6.6 33.2 6.6 31.4V16.6C6.6 14.8 7.6 13.2 9.2 12.2L21.6 4.8C22.4 4.3 23.4 4 24 4Z"/>
    </clipPath>
  </defs>

  <!-- Rounded hexagonal base -->
  <path d="M24 4C25 4 26 4.3 26.8 4.8L39.2 12.2C40.8 13.2 41.8 14.8 41.8 16.6V31.4C41.8 33.2 40.8 34.8 39.2 35.8L26.8 43.2C25.2 44.2 23.2 44.2 21.6 43.2L9.2 35.8C7.6 34.8 6.6 33.2 6.6 31.4V16.6C6.6 14.8 7.6 13.2 9.2 12.2L21.6 4.8C22.4 4.3 23.4 4 24 4Z" fill="url(#hex-gradient)"/>

  <!-- Inner hexagon highlight -->
  <path d="M24 7C24.8 7 25.5 7.2 26.1 7.6L36.5 13.8C37.7 14.5 38.5 15.8 38.5 17.2V30.8C38.5 32.2 37.7 33.5 36.5 34.2L26.1 40.4C24.9 41.1 23.5 41.1 22.3 40.4L11.9 34.2C10.7 33.5 9.9 32.2 9.9 30.8V17.2C9.9 15.8 10.7 14.5 11.9 13.8L22.3 7.6C22.9 7.2 23.6 7 24 7Z" fill="white" fill-opacity="0.08"/>

  <!-- Flowing wave curves inside hexagon -->
  <g clip-path="url(#hex-clip)">
    <!-- Wave 1 - top flowing curve -->
    <path d="M4 18C12 12 20 20 28 14C36 8 44 16 50 10" stroke="url(#wave-gradient-2)" stroke-width="4" stroke-linecap="round" fill="none" opacity="0.6"/>
    <!-- Wave 2 - middle flowing curve -->
    <path d="M-2 26C8 20 16 30 26 22C36 14 44 26 52 20" stroke="white" stroke-width="5" stroke-linecap="round" fill="none" opacity="0.35"/>
  </g>

  <!-- Data bars (analytics) -->
  <rect x="15" y="28" width="5" height="12" rx="1.5" fill="white" fill-opacity="0.9"/>
  <rect x="22" y="24" width="5" height="16" rx="1.5" fill="white" fill-opacity="0.9"/>
  <rect x="29" y="20" width="5" height="20" rx="1.5" fill="white" fill-opacity="0.9"/>

  <!-- Subtle edge highlight -->
  <path d="M24 4C25 4 26 4.3 26.8 4.8L39.2 12.2C40.8 13.2 41.8 14.8 41.8 16.6V31.4C41.8 33.2 40.8 34.8 39.2 35.8L26.8 43.2C25.2 44.2 23.2 44.2 21.6 43.2L9.2 35.8C7.6 34.8 6.6 33.2 6.6 31.4V16.6C6.6 14.8 7.6 13.2 9.2 12.2L21.6 4.8C22.4 4.3 23.4 4 24 4Z" fill="none" stroke="white" stroke-width="0.5" stroke-opacity="0.3"/>
</svg>
